<svg version="1.1" xmlns="http://www.w3.org/2000/svg" xmlns:xlink="http://www.w3.org/1999/xlink" width="483" height="475"><g transform="translate(2,56)"><g data-paper-data="{&quot;isPaintingLayer&quot;:true}" fill="none" fill-rule="nonzero" stroke="none" stroke-width="1" stroke-linecap="butt" stroke-linejoin="miter" stroke-miterlimit="10" stroke-dasharray="" stroke-dashoffset="0" font-family="none" font-weight="none" font-size="none" text-anchor="none" style="mix-blend-mode: normal"><path d="M-2,419v-475h483v475z" data-paper-data="{&quot;origPos&quot;:null}" fill="#ffcc4d"/><path d="M281.03056,300.25c-1.35903,0 -2.71806,-0.21111 -4.07708,-0.64653c-23.03981,-7.5339 -47.88033,-7.5339 -70.92014,0c-4.51428,1.56823 -9.52362,0.57284 -13.09549,-2.60201c-3.57187,-3.17485 -5.14781,-8.03298 -4.11983,-12.69998c1.02798,-4.66701 4.49917,-8.41344 9.07435,-9.79384c28.3294,-9.26283 58.87269,-9.26283 87.20208,0c6.92708,2.25625 10.72708,9.69792 8.48403,16.625c-1.77327,5.4311 -6.83466,9.10872 -12.54792,9.11736z" fill="#65471b"/><path d="M424.24306,160.99583c-2.42778,18.77569 -14.23681,34.56944 -32.40556,43.34375c-17.19236,8.29931 -41.41736,13.43194 -64.29653,11.99375c-13.36597,-0.84444 -26.29653,-3.93194 -37.11597,-9.92222c-16.25556,-8.98542 -25.91389,-23.42014 -27.91944,-41.73403c-0.79167,-7.16458 -1.31944,-13.78819 -1.79444,-20.31944c16.18411,13.65176 36.68465,21.12266 57.85764,21.08472c39.70208,0 73.77014,-25.99306 85.68472,-62.21181c15.31875,19.18472 22.40417,39.09514 19.98958,57.76528z" fill="#ffffff"/><path d="M383.36667,81.78958c1.60972,1.37222 3.00833,2.78403 4.52569,4.16944c-5.33056,34.13403 -34.55625,59.69167 -69.31042,59.69167c-23.40556,0.04315 -45.30411,-11.54151 -58.43819,-30.91458l-0.51458,-0.89722c0.39583,-39.425 8.97222,-62.52847 26.08542,-69.78542c12.32361,-5.23819 48.63472,-4.09028 97.65208,37.73611z" fill="#65471b"/><path d="M260.71111,144.35764c-0.81806,-11.08333 -1.1875,-21.26944 -1.09514,-30.51875l0.51458,0.89722c13.13408,19.37307 35.03264,30.95773 58.43819,30.91458c34.75417,0 63.97986,-25.55764 69.31042,-59.69167c6.20139,5.66042 11.70347,11.42639 16.37431,17.27153c-11.91458,36.21875 -45.98264,62.21181 -85.68472,62.21181c-21.17299,0.03793 -41.67353,-7.43296 -57.85764,-21.08472z" fill="#f4900c"/><path d="M271.92639,85.24653c0,-8.06682 6.53943,-14.60625 14.60625,-14.60625c8.06682,0 14.60625,6.53943 14.60625,14.60625c0,8.06682 -6.53943,14.60625 -14.60625,14.60625c-8.06682,0 -14.60625,-6.53943 -14.60625,-14.60625z" fill="#ffffff"/><path d="M222.28889,144.39722c-0.475,6.51806 -1.00278,13.11528 -1.79444,20.26667c-2.01875,18.31389 -11.67708,32.74861 -27.91944,41.73403c-10.81944,6.00347 -23.75,9.07778 -37.11597,9.92222c-22.89236,1.43819 -47.10417,-3.69444 -64.29653,-11.99375c-18.16875,-8.76111 -29.96458,-24.56806 -32.40556,-43.34375c-2.40139,-18.65694 4.67083,-38.56736 19.98958,-57.75208c11.91458,36.21875 45.98264,62.21181 85.68472,62.21181c21.16541,0.03417 41.6604,-7.42069 57.85764,-21.04514z" fill="#ffffff"/><path d="M95.12083,85.94583c1.53056,-1.38542 2.91597,-2.79722 4.52569,-4.16944c49.00417,-41.81319 85.32847,-42.96111 97.65208,-37.72292c17.11319,7.25694 25.67639,30.36042 26.08542,69.78542l-0.51458,0.89722c-13.13408,19.37307 -35.03264,30.95773 -58.43819,30.91458c-34.75417,0 -63.97986,-25.55764 -69.31042,-59.70486z" fill="#65471b"/><path d="M222.27569,144.41042c-16.19902,13.6197 -36.69388,21.06981 -57.85764,21.03194c-39.70208,0 -73.77014,-25.99306 -85.68472,-62.21181c4.67083,-5.84514 10.17292,-11.61111 16.37431,-17.27153c5.33056,34.13403 34.55625,59.69167 69.31042,59.69167c23.40556,0.04315 45.30411,-11.54151 58.43819,-30.91458l0.51458,-0.89722c0.10556,9.27569 -0.27708,19.475 -1.09514,30.57153z" fill="#f4900c"/><path d="M119.50535,93.52697c-3.02126,-4.42364 -3.38121,-10.14547 -0.93799,-14.91282c2.44322,-4.76735 7.29811,-7.81665 12.65347,-7.94748c8.05224,-0.50647 14.99041,5.61061 15.49687,13.66285c0.50647,8.05224 -5.61061,14.99041 -13.66285,15.49687c-5.3295,0.54124 -10.52824,-1.87579 -13.54951,-6.29942z" fill="#ffffff"/></g></g></svg>